<svg width="25" height="14" viewBox="0 0 25 14" fill="none" xmlns="http://www.w3.org/2000/svg">
<path d="M0.85891 0.138365C0.690203 0.208758 0.536963 0.311925 0.407969 0.44196C0.278649 0.571667 0.176047 0.725754 0.106041 0.895395C0.0360352 1.06503 0 1.24689 0 1.43056C0 1.61422 0.0360352 1.79608 0.106041 1.96572C0.176047 2.13536 0.278649 2.28945 0.407969 2.41916L11.5172 13.5898C11.6462 13.7198 11.7994 13.823 11.9681 13.8934C12.1368 13.9638 12.3177 14 12.5004 14C12.683 14 12.8639 13.9638 13.0326 13.8934C13.2013 13.823 13.3545 13.7198 13.4835 13.5898L24.5928 2.41916C24.8535 2.15697 25 1.80136 25 1.43056C25 1.05976 24.8535 0.704153 24.5928 0.44196C24.332 0.179767 23.9784 0.0324712 23.6096 0.0324712C23.2408 0.0324712 22.8872 0.179767 22.6264 0.44196L12.5004 10.6268L2.3743 0.44196C2.24531 0.311925 2.09207 0.208758 1.92336 0.138365C1.75465 0.0679721 1.57379 0.0317383 1.39114 0.0317383C1.20848 0.0317383 1.02762 0.0679721 0.85891 0.138365Z" fill="white"/>
</svg>
