<svg width="14" height="25" viewBox="0 0 14 25" fill="none" xmlns="http://www.w3.org/2000/svg">
<path d="M0.137877 24.1411C0.20827 24.3098 0.311437 24.463 0.441472 24.592C0.571178 24.7214 0.725266 24.824 0.894906 24.894C1.06455 24.964 1.24641 25 1.43007 25C1.61374 25 1.7956 24.964 1.96524 24.894C2.13488 24.824 2.28896 24.7214 2.41867 24.592L13.5893 13.4828C13.7193 13.3538 13.8225 13.2006 13.8929 13.0319C13.9633 12.8632 13.9995 12.6823 13.9995 12.4996C13.9995 12.317 13.9633 12.1361 13.8929 11.9674C13.8225 11.7987 13.7193 11.6455 13.5893 11.5165L2.41867 0.407238C2.15648 0.146486 1.80087 0 1.43007 0C1.05927 0 0.703665 0.146486 0.441472 0.407238C0.179279 0.667992 0.0319829 1.02165 0.0319829 1.39041C0.0319829 1.75916 0.179279 2.11282 0.441472 2.37357L10.6263 12.4996L0.441472 22.6257C0.311437 22.7547 0.20827 22.9079 0.137877 23.0766C0.0674838 23.2453 0.03125 23.4262 0.03125 23.6089C0.03125 23.7915 0.0674838 23.9724 0.137877 24.1411Z" fill="white"/>
</svg>
