<svg width="25" height="14" viewBox="0 0 25 14" fill="none" xmlns="http://www.w3.org/2000/svg">
<path d="M24.1411 13.8934C24.3098 13.823 24.463 13.7198 24.592 13.5898C24.7214 13.4601 24.824 13.306 24.894 13.1363C24.964 12.9667 25 12.7848 25 12.6012C25 12.4175 24.964 12.2357 24.894 12.066C24.824 11.8964 24.7214 11.7423 24.592 11.6126L13.4828 0.441972C13.3538 0.311936 13.2006 0.208769 13.0319 0.138376C12.8632 0.0679836 12.6823 0.0317497 12.4996 0.0317497C12.317 0.0317497 12.1361 0.0679836 11.9674 0.138376C11.7987 0.208769 11.6455 0.311936 11.5165 0.441972L0.407238 11.6126C0.146486 11.8748 0 12.2304 0 12.6012C0 12.972 0.146486 13.3276 0.407238 13.5898C0.667992 13.852 1.02165 13.9993 1.39041 13.9993C1.75916 13.9993 2.11282 13.852 2.37357 13.5898L12.4996 3.40497L22.6257 13.5898C22.7547 13.7198 22.9079 13.823 23.0766 13.8934C23.2453 13.9638 23.4262 14 23.6089 14C23.7915 14 23.9724 13.9638 24.1411 13.8934Z" fill="white"/>
</svg>
