<svg width="14" height="25" viewBox="0 0 14 25" fill="none" xmlns="http://www.w3.org/2000/svg">
<path d="M13.8934 24.1411C13.823 24.3098 13.7198 24.463 13.5898 24.592C13.4601 24.7214 13.306 24.824 13.1363 24.894C12.9667 24.964 12.7848 25 12.6012 25C12.4175 25 12.2357 24.964 12.066 24.894C11.8964 24.824 11.7423 24.7214 11.6126 24.592L0.441972 13.4828C0.311936 13.3538 0.208769 13.2006 0.138376 13.0319C0.0679836 12.8632 0.0317497 12.6823 0.0317497 12.4996C0.0317497 12.317 0.0679836 12.1361 0.138376 11.9674C0.208769 11.7987 0.311936 11.6455 0.441972 11.5165L11.6126 0.407238C11.8748 0.146486 12.2304 0 12.6012 0C12.972 0 13.3276 0.146486 13.5898 0.407238C13.852 0.667992 13.9993 1.02165 13.9993 1.39041C13.9993 1.75916 13.852 2.11282 13.5898 2.37357L3.40497 12.4996L13.5898 22.6257C13.7198 22.7547 13.823 22.9079 13.8934 23.0766C13.9638 23.2453 14 23.4262 14 23.6089C14 23.7915 13.9638 23.9724 13.8934 24.1411Z" fill="white"/>
</svg>
