<svg width="25" height="14" viewBox="0 0 25 14" fill="none" xmlns="http://www.w3.org/2000/svg">
<path d="M0.85891 0.106639C0.690203 0.17704 0.536963 0.28022 0.407969 0.41027C0.278649 0.539992 0.176047 0.694098 0.106041 0.863758C0.0360352 1.03342 0 1.2153 0 1.39899C0 1.58267 0.0360352 1.76455 0.106041 1.93421C0.176047 2.10387 0.278649 2.25798 0.407969 2.3877L11.5172 13.5596C11.6462 13.6897 11.7994 13.7928 11.9681 13.8632C12.1368 13.9337 12.3177 13.9699 12.5004 13.9699C12.683 13.9699 12.8639 13.9337 13.0326 13.8632C13.2013 13.7928 13.3545 13.6897 13.4835 13.5596L24.5928 2.3877C24.8535 2.12548 25 1.76983 25 1.39899C25 1.02815 24.8535 0.672493 24.5928 0.41027C24.332 0.148047 23.9784 0.000733021 23.6096 0.000733021C23.2408 0.000733021 22.8872 0.148047 22.6264 0.41027L12.5004 10.5963L2.3743 0.41027C2.24531 0.28022 2.09207 0.17704 1.92336 0.106639C1.75465 0.0362381 1.57379 0 1.39114 0C1.20848 0 1.02762 0.0362381 0.85891 0.106639Z" fill="#102770"/>
</svg>
