<svg width="12" height="20" viewBox="0 0 12 20" fill="none" xmlns="http://www.w3.org/2000/svg">
<path d="M0.90952 19.3129C0.965834 19.4478 1.04837 19.5704 1.1524 19.6736C1.25616 19.7771 1.37943 19.8592 1.51514 19.9152C1.65085 19.9712 1.79634 20 1.94327 20C2.09021 20 2.23569 19.9712 2.3714 19.9152C2.50712 19.8592 2.63039 19.7771 2.73415 19.6736L11.6706 10.7863C11.7746 10.6831 11.8572 10.5605 11.9135 10.4255C11.9698 10.2905 11.9988 10.1459 11.9988 9.99973C11.9988 9.8536 11.9698 9.70892 11.9135 9.57395C11.8572 9.43898 11.7746 9.31639 11.6706 9.2132L2.73415 0.32583C2.5244 0.117229 2.23991 4.00543e-05 1.94327 4.00543e-05C1.64664 4.00543e-05 1.36215 0.117229 1.1524 0.32583C0.942642 0.534431 0.824805 0.817356 0.824805 1.11236C0.824805 1.40737 0.942642 1.69029 1.1524 1.8989L9.30022 9.99973L1.1524 18.1006C1.04837 18.2038 0.965834 18.3263 0.90952 18.4613C0.853206 18.5963 0.824219 18.741 0.824219 18.8871C0.824219 19.0332 0.853206 19.1779 0.90952 19.3129Z" fill="#102770"/>
</svg>
