<svg width="12" height="20" viewBox="0 0 12 20" fill="none" xmlns="http://www.w3.org/2000/svg">
<path d="M11.0885 0.687127C11.0322 0.552161 10.9497 0.42957 10.8457 0.326375C10.7419 0.222918 10.6186 0.140838 10.4829 0.0848328C10.3472 0.0288281 10.2017 0 10.0548 0C9.90784 0 9.76235 0.0288281 9.62664 0.0848328C9.49093 0.140838 9.36766 0.222918 9.2639 0.326375L0.327427 9.21374C0.223399 9.31693 0.140865 9.43953 0.0845509 9.57449C0.0282373 9.70946 -0.000750542 9.85415 -0.000750542 10.0003C-0.000750542 10.1464 0.0282373 10.2911 0.0845509 10.4261C0.140865 10.561 0.223399 10.6836 0.327427 10.7868L9.2639 19.6742C9.47365 19.8828 9.75814 20 10.0548 20C10.3514 20 10.6359 19.8828 10.8457 19.6742C11.0554 19.4656 11.1732 19.1826 11.1732 18.8876C11.1732 18.5926 11.0554 18.3097 10.8457 18.1011L2.69782 10.0003L10.8457 1.89944C10.9497 1.79624 11.0322 1.67365 11.0885 1.53869C11.1448 1.40372 11.1738 1.25903 11.1738 1.11291C11.1738 0.966782 11.1448 0.822093 11.0885 0.687127Z" fill="#102770"/>
</svg>
