<svg width="25" height="14" viewBox="0 0 25 14" fill="none" xmlns="http://www.w3.org/2000/svg">
<path d="M0.85891 13.8633C0.690203 13.7929 0.536963 13.6898 0.407969 13.5597C0.278649 13.43 0.176047 13.2759 0.106041 13.1062C0.0360352 12.9366 0 12.7547 0 12.571C0 12.3873 0.0360352 12.2054 0.106041 12.0358C0.176047 11.8661 0.278649 11.712 0.407969 11.5823L11.5172 0.410352C11.6462 0.280301 11.7994 0.177122 11.9681 0.106721C12.1368 0.0363197 12.3177 8.10623e-05 12.5004 8.10623e-05C12.683 8.10623e-05 12.8639 0.0363197 13.0326 0.106721C13.2013 0.177122 13.3545 0.280301 13.4835 0.410352L24.5928 11.5823C24.8535 11.8445 25 12.2001 25 12.571C25 12.9418 24.8535 13.2975 24.5928 13.5597C24.332 13.8219 23.9784 13.9692 23.6096 13.9692C23.2408 13.9692 22.8872 13.8219 22.6264 13.5597L12.5004 3.3737L2.3743 13.5597C2.24531 13.6898 2.09207 13.7929 1.92336 13.8633C1.75465 13.9337 1.57379 13.97 1.39114 13.97C1.20848 13.97 1.02762 13.9337 0.85891 13.8633Z" fill="#102770"/>
</svg>
