<svg width="38" height="38" viewBox="0 0 38 38" fill="none" xmlns="http://www.w3.org/2000/svg">
<circle cx="19" cy="19" r="19" fill="#1E5BB6"/>
<path d="M23.5833 8C20.045 8 17.1667 10.8793 17.1667 14.4167C17.1667 17.9541 20.045 20.8333 23.5833 20.8333C27.1217 20.8333 30 17.9541 30 14.4167C30 10.8793 27.1217 8 23.5833 8ZM23.235 13.7292H23.9317C25.0033 13.7292 25.875 14.6009 25.875 15.6725C25.875 16.6359 25.1802 17.4288 24.2708 17.5902V18.3116C24.2708 18.6911 23.9628 18.9991 23.5833 18.9991C23.2038 18.9991 22.8958 18.6911 22.8958 18.3116V17.625H21.9792C21.5997 17.625 21.2917 17.317 21.2917 16.9375C21.2917 16.558 21.5997 16.25 21.9792 16.25H23.9317C24.2452 16.25 24.5 15.9952 24.5 15.6817C24.5 15.359 24.2452 15.1042 23.9317 15.1042H23.235C22.1634 15.1042 21.2917 14.2324 21.2917 13.1608C21.2917 12.1974 21.9865 11.4045 22.8958 11.2432V10.5208C22.8958 10.1413 23.2038 9.83333 23.5833 9.83333C23.9628 9.83333 24.2708 10.1413 24.2708 10.5208V11.2083H25.1875C25.567 11.2083 25.875 11.5163 25.875 11.8958C25.875 12.2753 25.567 12.5833 25.1875 12.5833H23.235C22.9215 12.5833 22.6667 12.8382 22.6667 13.1517C22.6667 13.4743 22.9215 13.7292 23.235 13.7292Z" fill="white"/>
<path d="M8.45008 19.0018C8.20075 19.0064 8 19.2099 8 19.4602V27.7083C8 27.9613 8.20533 28.1667 8.45833 28.1667H10.4035C10.6088 28.1667 10.7885 28.031 10.8444 27.8339L12.873 20.6858C13.0041 20.2238 12.7566 19.7379 12.3047 19.5738C11.4742 19.2713 10.2 18.9725 8.45008 19.0018Z" fill="white"/>
<path d="M28.1667 24.0417C26.3333 24.0417 22.6667 26.3617 20.8333 26.3617C19 26.3617 16.9375 24.9583 16.9375 24.9583C16.9375 24.9583 19.407 25.4167 20.8333 25.4167C22.2597 25.4167 22.6667 24.9299 22.6667 24.2708C22.6667 22.6667 19.9423 22.4173 18.5637 22.2074C17.2107 21.4539 16.5076 20.8581 14.2663 20.6683C14.2535 20.7994 14.2333 20.9296 14.1967 21.0588L12.3551 27.5488C14.4405 28.4976 18.032 30 19.9167 30C22.6667 30 30 26.3333 30 25.4167C30 24.5 29.0833 24.0417 28.1667 24.0417Z" fill="white"/>
</svg>
