<svg width="38" height="38" viewBox="0 0 38 38" fill="none" xmlns="http://www.w3.org/2000/svg">
<circle cx="19" cy="19" r="19" fill="#1E5BB6"/>
<path d="M12.5099 25.5C10.8423 25.5 9.35891 24.475 8.82026 22.949L8.78383 22.834C8.6568 22.4299 8.60358 22.0901 8.60358 21.75V14.932L6.07648 23.0299C5.75146 24.221 6.4921 25.4559 7.73476 25.7849L23.8425 29.926C24.0435 29.976 24.2446 30 24.4426 30C25.48 30 26.428 29.339 26.6937 28.3649L27.6321 25.5H12.5099Z" fill="white"/>
<path d="M15.3746 15.0001C16.5237 15.0001 17.4579 14.1031 17.4579 13C17.4579 11.897 16.5237 11 15.3746 11C14.2256 11 13.2912 11.897 13.2912 13C13.2912 14.1031 14.2256 15.0001 15.3746 15.0001Z" fill="white"/>
<path d="M28.3956 8H12.7703C11.335 8 10.1661 9.12206 10.1661 10.5001V21.4999C10.1661 22.878 11.335 24 12.7703 24H28.3956C29.8312 24 31 22.878 31 21.4999V10.5001C31 9.12206 29.8312 8 28.3956 8ZM12.7703 10.0001H28.3956C28.6833 10.0001 28.9166 10.224 28.9166 10.5001V17.5991L25.6259 13.913C25.2769 13.52 24.7716 13.31 24.2289 13.2981C23.6893 13.3011 23.1831 13.531 22.8373 13.9291L18.9684 18.387L17.708 17.1799C16.9955 16.496 15.836 16.496 15.1246 17.1799L12.2496 19.939V10.5001C12.2496 10.224 12.4828 10.0001 12.7703 10.0001Z" fill="white"/>
</svg>
