<svg width="38" height="38" viewBox="0 0 38 38" fill="none" xmlns="http://www.w3.org/2000/svg">
<circle cx="19" cy="19" r="19" fill="#309DDA"/>
<path d="M30.9372 16.3125C30.7792 15.8476 30.3482 15.5186 29.8402 15.4746L22.9121 14.8729L20.174 8.74134C19.972 8.2908 19.512 8 19 8C18.488 8 18.028 8.2908 17.827 8.74134L15.0889 14.8729L8.15982 15.4746C7.65181 15.5195 7.2218 15.8486 7.0628 16.3125C6.9048 16.7774 7.0508 17.2873 7.43481 17.6096L12.6719 22.0022L11.1279 28.5078C11.0149 28.986 11.2089 29.4806 11.6239 29.7676C11.8469 29.9225 12.1089 30 12.3719 30C12.5979 30 12.8239 29.9426 13.0259 29.8269L19 26.41L24.9731 29.8269C25.4111 30.0775 25.9621 30.0545 26.3761 29.7676C26.7911 29.4806 26.9851 28.986 26.8721 28.5078L25.3281 22.0022L30.5652 17.6096C30.9492 17.2873 31.0952 16.7784 30.9372 16.3125Z" fill="white"/>
</svg>
