<svg width="38" height="38" viewBox="0 0 38 38" fill="none" xmlns="http://www.w3.org/2000/svg">
<rect width="38" height="38" rx="19" fill="#309DDA"/>
<path d="M29.5462 8.0691C25.2468 7.99622 20.352 10.2432 17.2529 13.7278C14.2926 13.7828 11.4039 14.993 9.27823 17.1217C9.15861 17.2413 9.11324 17.4242 9.16823 17.5892C9.22323 17.7543 9.36073 17.8739 9.53534 17.9014L13.0744 18.4061L12.6345 18.9011C12.4695 19.0758 12.4791 19.3591 12.6523 19.5255L17.6942 24.5695C17.6489 24.2766 17.6214 23.9727 17.6214 23.6619C17.6214 20.378 20.2984 17.7006 23.5803 17.7006C24.6349 17.7006 25.6331 17.9757 26.4952 18.4707C28.7322 15.5361 30.07 11.8398 29.9972 8.51878C29.9862 8.27125 29.7937 8.07873 29.5462 8.0691ZM25.321 15.9941C24.8714 16.4341 24.2857 16.6638 23.6986 16.6638C23.1115 16.6638 22.5258 16.4341 22.0762 15.9941C21.1866 15.0947 21.1866 13.6371 22.0762 12.7474C22.974 11.848 24.4314 11.848 25.321 12.7474C26.2092 13.6371 26.2092 15.0947 25.321 15.9941Z" fill="white"/>
<path d="M10.4968 23.5641C9.51509 24.5446 8.16903 28.9781 8.01916 29.48C7.97104 29.6423 8.01503 29.8169 8.13465 29.9352C8.22127 30.0232 8.33814 30.07 8.45776 30.07C8.50176 30.07 8.54576 30.0631 8.58976 30.0507C9.09161 29.9008 13.523 28.5532 14.5047 27.5727C15.6102 26.4671 15.6102 24.6698 14.5047 23.5655C13.3993 22.4585 11.6022 22.4599 10.4968 23.5641Z" fill="white"/>
<path d="M29.7308 28.505L27.403 26.1769C27.8829 25.4522 28.1661 24.5859 28.1661 23.6535C28.1661 21.126 26.1106 19.0702 23.5835 19.0702C21.0549 19.0688 18.9994 21.1246 18.9994 23.6522C18.9994 26.1797 21.0549 28.2355 23.5821 28.2355C24.5143 28.2355 25.3805 27.9522 26.1051 27.4723L28.4329 29.8004C28.6116 29.9792 28.8467 30.0686 29.0805 30.0686C29.3142 30.0686 29.5493 29.9792 29.7281 29.8004C30.0883 29.4429 30.0883 28.8626 29.7308 28.505ZM23.5821 26.4025C22.0655 26.4025 20.8322 25.1689 20.8322 23.6522C20.8322 22.1354 22.0655 20.9019 23.5821 20.9019C25.0986 20.9019 26.332 22.1354 26.332 23.6522C26.332 25.1689 25.0986 26.4025 23.5821 26.4025Z" fill="white"/>
</svg>
