<svg width="12" height="20" viewBox="0 0 12 20" fill="none" xmlns="http://www.w3.org/2000/svg">
<path d="M0.90952 19.3128C0.965834 19.4478 1.04837 19.5704 1.1524 19.6736C1.25616 19.777 1.37943 19.8591 1.51514 19.9151C1.65085 19.9711 1.79634 19.9999 1.94327 19.9999C2.09021 19.9999 2.23569 19.9711 2.3714 19.9151C2.50712 19.8591 2.63039 19.777 2.73415 19.6736L11.6706 10.7862C11.7746 10.683 11.8572 10.5604 11.9135 10.4254C11.9698 10.2905 11.9988 10.1458 11.9988 9.99967C11.9988 9.85354 11.9698 9.70885 11.9135 9.57389C11.8572 9.43892 11.7746 9.31633 11.6706 9.21313L2.73415 0.325769C2.5244 0.117168 2.23991 -2.09808e-05 1.94327 -2.09808e-05C1.64664 -2.09808e-05 1.36215 0.117168 1.1524 0.325769C0.942642 0.53437 0.824805 0.817295 0.824805 1.1123C0.824805 1.40731 0.942642 1.69023 1.1524 1.89883L9.30022 9.99967L1.1524 18.1005C1.04837 18.2037 0.965834 18.3263 0.90952 18.4613C0.853206 18.5962 0.824219 18.7409 0.824219 18.887C0.824219 19.0332 0.853206 19.1778 0.90952 19.3128Z" fill="#102770"/>
</svg>
