<svg width="12" height="20" viewBox="0 0 12 20" fill="none" xmlns="http://www.w3.org/2000/svg">
<path d="M11.9127 19.3128C11.8564 19.4478 11.7739 19.5704 11.6699 19.6736C11.5661 19.777 11.4428 19.8591 11.3071 19.9151C11.1714 19.9711 11.0259 19.9999 10.879 19.9999C10.7321 19.9999 10.5866 19.9711 10.4509 19.9151C10.3151 19.8591 10.1919 19.777 10.0881 19.6736L1.15165 10.7862C1.04762 10.683 0.965084 10.5604 0.90877 10.4254C0.852456 10.2905 0.823468 10.1458 0.823468 9.99967C0.823468 9.85354 0.852456 9.70885 0.90877 9.57389C0.965084 9.43892 1.04762 9.31633 1.15165 9.21313L10.0881 0.325769C10.2979 0.117168 10.5824 -2.09808e-05 10.879 -2.09808e-05C11.1756 -2.09808e-05 11.4601 0.117168 11.6699 0.325769C11.8796 0.53437 11.9975 0.817295 11.9975 1.1123C11.9975 1.40731 11.8796 1.69023 11.6699 1.89883L3.52204 9.99967L11.6699 18.1005C11.7739 18.2037 11.8564 18.3263 11.9127 18.4613C11.9691 18.5962 11.998 18.7409 11.998 18.887C11.998 19.0332 11.9691 19.1778 11.9127 19.3128Z" fill="#102770"/>
</svg>
