<svg width="7" height="7" viewBox="0 0 7 7" fill="none" xmlns="http://www.w3.org/2000/svg">
<path d="M5.90404 0.700722C6.02406 0.572607 6.18607 0.500505 6.35506 0.500003C6.52404 0.499501 6.68643 0.570639 6.8071 0.698039C6.92776 0.825439 6.99703 0.998863 6.99991 1.18082C7.00279 1.36277 6.93905 1.53864 6.82249 1.67039L3.39911 6.27863C3.34028 6.34688 3.26926 6.40164 3.19032 6.43966C3.11138 6.47767 3.02613 6.49816 2.93968 6.49988C2.85322 6.50161 2.76732 6.48454 2.68713 6.44969C2.60694 6.41485 2.53409 6.36295 2.47295 6.2971L0.204706 3.85353C0.141516 3.79013 0.0908321 3.71366 0.0556791 3.6287C0.0205261 3.54374 0.00162379 3.45202 0.000100094 3.35902C-0.0014236 3.26603 0.0144626 3.17365 0.0468105 3.08741C0.0791585 3.00116 0.127306 2.92282 0.18838 2.85705C0.249454 2.79128 0.322204 2.73943 0.40229 2.70459C0.482376 2.66976 0.568157 2.65265 0.654515 2.65429C0.740874 2.65593 0.826041 2.67629 0.904936 2.71414C0.983831 2.752 1.05484 2.80658 1.11372 2.87463L2.90945 4.80751L5.88775 0.721039C5.89306 0.713884 5.89793 0.707098 5.90404 0.700722Z" fill="#1E5BB6"/>
</svg>
