<svg width="10" height="9" viewBox="0 0 10 9" fill="none" xmlns="http://www.w3.org/2000/svg">
<path d="M8.43434 0.301083C8.60579 0.108911 8.83724 0.000757086 9.07865 3.95963e-06C9.32006 -0.000749167 9.55204 0.105959 9.72442 0.297059C9.89681 0.488158 9.99575 0.748295 9.99987 1.02123C10.004 1.29416 9.91293 1.55796 9.74641 1.75559L4.85587 8.66795C4.77182 8.77032 4.67038 8.85247 4.55761 8.90949C4.44483 8.96651 4.32305 8.99724 4.19954 8.99982C4.07602 9.00241 3.95332 8.9768 3.83876 8.92454C3.72419 8.87228 3.62013 8.79443 3.53278 8.69565L0.292438 5.0303C0.202165 4.93519 0.12976 4.82049 0.0795416 4.69305C0.029323 4.56561 0.0023197 4.42803 0.000142992 4.28854C-0.00203372 4.14904 0.0206608 4.01047 0.0668722 3.88111C0.113084 3.75174 0.181865 3.63423 0.269114 3.53557C0.356363 3.43692 0.460292 3.35914 0.5747 3.30689C0.689108 3.25464 0.811652 3.22898 0.935022 3.23144C1.05839 3.2339 1.18006 3.26443 1.29277 3.32122C1.40547 3.378 1.50691 3.45987 1.59103 3.56194L4.15635 6.46126L8.41107 0.331559C8.41866 0.320826 8.42562 0.310647 8.43434 0.301083Z" fill="#1E5BB6"/>
</svg>
